<svg xmlns="http://www.w3.org/2000/svg" viewBox="0 0 750 471">
  <rect width="750" height="471" fill="#003087"/>
  <path fill="#fff" d="M285 100h-95c-7 0-13 5-14 12l-35 225c-1 5 3 10 8 10h50c7 0 13-5 14-12l10-63c1-7 7-12 14-12h30c63 0 100-30 110-90 4-25 0-45-13-60-14-17-40-20-69-10zm15 85c-5 32-30 32-54 32h-14l10-62c1-4 4-7 8-7h7c16 0 32 0 40 10 5 6 6 15 3 27z"/>
  <path fill="#fff" d="M500 182h-50c-4 0-7 3-8 7l-2 13-3-5c-10-14-31-18-52-18-48 0-89 36-97 87-4 25 2 49 17 66 14 16 34 22 57 22 40 0 62-26 62-26l-2 13c-1 5 3 10 8 10h45c7 0 13-5 14-12l27-170c1-5-3-10-8-10zm-67 84c-4 24-23 41-48 41-12 0-22-4-28-12-6-8-8-18-6-29 4-24 23-41 47-41 12 0 22 4 29 12 6 8 8 18 6 29z"/>
  <path fill="#009CDE" d="M600 182h-50c-4 0-7 3-8 7l-2 13-3-5c-10-14-31-18-52-18-48 0-89 36-97 87-4 25 2 49 17 66 14 16 34 22 57 22 40 0 62-26 62-26l-2 13c-1 5 3 10 8 10h45c7 0 13-5 14-12l27-170c1-5-3-10-8-10zm-67 84c-4 24-23 41-48 41-12 0-22-4-28-12-6-8-8-18-6-29 4-24 23-41 47-41 12 0 22 4 29 12 6 8 8 18 6 29z"/>
  <path fill="#003087" d="M640 100l-36 230c-1 5 3 10 8 10h36c7 0 13-5 14-12l35-225c1-5-3-10-8-10h-42c-4 0-7 3-7 7z"/>
</svg>