<svg xmlns="http://www.w3.org/2000/svg" viewBox="0 0 750 471">
  <rect width="750" height="471" fill="#1434CB"/>
  <path fill="#fff" d="M278.2 334.2h-60.9l38.1-234.2h60.9zm-118.6 0l-58.1-160.3-6.6 32.7-20.8-107.2s-2.8-8.6-12.2-8.6H56.3l-.8 2.9s12.8 2.9 27.3 12.7l48.7 175.8h61.1l91-234.2h-60.9zm402.8-151.7c0-8.8 6.8-18.2 26.9-15.9 10.7 1.2 22.1 6.7 22.1 6.7l9.2-40.9s-15.2-5.6-34.1-5.6c-36.7 0-62.5 19.2-62.5 46.6 0 36.2 48.8 38.2 48.8 55.9 0 4.2-4.6 15.9-27.1 15.9-18.9 0-35.1-7.4-35.1-7.4l-9.5 39.8s18.3 8.1 41.9 8.1c23.6 0 73.9-18.8 73.9-54.1 0-36.4-54.5-40.8-54.5-49.1m145.8 151.7l47.2-234.2h-56.2c-8.3 0-15.7 4.8-18.9 12.3l-85.4 221.9h61.1l12.2-33.8h73.9l7.2 33.8h58.9zm-77.9-80.2l31.7-87.5 17.4 87.5h-49.1z"/>
</svg>